# xmcd
#
# Track frame offsets:
#	150
#	10787
#	24750
#	39257
#	52425
#	64265
#	77932
#	89640
#	102790
#	114315
#	125922
#	140607
#
# Disc length: 2016 seconds
# Revision: 0
# Processed by: cddbd v1.5.2PL0 Copyright (c) Steve Scherf et al.
# Submitted via: dBpowerAMP V12.0
#
DISCID=a307de0c
DTITLE=William Bell - Bound to Happen
DYEAR=1969
DGENRE=R&B
TTITLE0=I Forgot to Be Your Lover
TTITLE1=Western Union Man
TTITLE2=My Whole World Is Falling Down
TTITLE3=Everyday People
TTITLE4=Johnny, I Love You
TTITLE5=All God's Children Got Soul
TTITLE6=Happy
TTITLE7=By the Time I Get to Phoenix
TTITLE8=Bring the Curtain Down
TTITLE9=Smile Can't Hide (A Broken Heart)
TTITLE10=Born Under a Bad Sign
TTITLE11=I Got a Sure Thing
EXTD=
EXTT0=
EXTT1=
EXTT2=
EXTT3=
EXTT4=
EXTT5=
EXTT6=
EXTT7=
EXTT8=
EXTT9=
EXTT10=
EXTT11=
PLAYORDER=
